{"title":"Trance.2013.CAM.XViD-FANTA","uid":8449407,"size":763542825,"categoryP":"video","categoryS":"movies","magnet":"?xt=urn:btih:cfcb77dcb2d6e087cdcb5bf6343f9c6aa18925cb&amp;dn=Trance.2013.CAM.XViD-FANTA&amp;tr=udp%3A%2F%2Ftracker.openbittorrent.com%3A80&amp;tr=udp%3A%2F%2Fopen.demonii.com%3A1337&amp;tr=udp%3A%2F%2Ftracker.coppersurfer.tk%3A6969&amp;tr=udp%3A%2F%2Fexodus.desync.com%3A6969","seeders":0,"leechers":0,"uploader":"xxxlavalxxx","files":-1,"time":1367959188,"description":" &lt;a href=&quot;http://www.imdb.com/title/tt1924429/&quot; rel=&quot;nofollow&quot; target=&quot;_NEW&quot;&gt;http://www.imdb.com/title/tt1924429/&lt;/a&gt;\n\n\n\nAn art auctioneer who has become mixed up with a group of criminals partners with a hypnotherapist in order to recover a lost painting. \n\n\n\nDirector:\n Danny Boyle \n\nWriters:\n Joe Ahearne, John Hodge \n\nStars:\n James McAvoy, Vincent Cassel, Rosario Dawson\n\nGenres:\n  Crime |  Drama |  Mystery |  Thriller \n\nCountry:\n UK \n\nLanguage:\n English \n\n\n\n\nFormat                                   : AVI\nFormat/Info                              : Audio Video Interleave\nFormat profile                           : OpenDML\nFormat settings                          : rec\nFile size                                : 712 MiB\nDuration                                 : 1h 35mn\nOverall bit rate                         : 1 040 Kbps\nWriting application                      : AVI-Mux GUI 1.17.8.3, Feb 16 201019:42:50\n\nVideo\nID                                       : 0\nFormat                                   : MPEG-4 Visual\nFormat profile                           : Advanced Simple@L5\nFormat settings, BVOP                    : 1\nFormat settings, QPel                    : No\nFormat settings, GMC                     : No warppoints\nFormat settings, Matrix                  : Default (H.263)\nMuxing mode                              : Packed bitstream\nCodec ID                                 : XVID\nCodec ID/Hint                            : XviD\nDuration                                 : 1h 35mn\nBit rate                                 : 843 Kbps\nWidth                                    : 636 pixels\nHeight                                   : 226 pixels\nDisplay aspect ratio                     : 2.814\nFrame rate                               : 25.000 fps\nColor space                              : YUV\nChroma subsampling                       : 4:2:0\nBit depth                                : 8 bits\nScan type                                : Progressive\nCompression mode                         : Lossy\nBits/(Pixel*Frame)                       : 0.235\nStream size                              : 577 MiB (81%)\nWriting library                          : XviD 64\n\nAudio\nID                                       : 1\nFormat                                   : AC-3\nFormat/Info                              : Audio Coding 3\nMode extension                           : CM (complete main)\nFormat settings, Endianness              : Big\nCodec ID                                 : 2000\nDuration                                 : 1h 35mn\nBit rate mode                            : Constant\nBit rate                                 : 192 Kbps\nChannel(s)                               : 2 channels\nChannel positions                        : Front: L R\nSampling rate                            : 48.0 KHz\nBit depth                                : 16 bits\nCompression mode                         : Lossy\nStream size                              : 131 MiB (18%)\nAlignment                                : Aligned on interleaves\nInterleave, duration                     : 64 ms (1.60 video frames)\nInterleave, preload duration             : 192 ms\nTitle                                    : Trance 2013-AUDIO\n\n\n\n\n\n    &lt;a href=&quot;\thttp://addpix.net/viewer.php?file=74504952684806583081.jpg&quot; rel=&quot;nofollow&quot; target=&quot;_NEW&quot;&gt;\thttp://addpix.net/viewer.php?file=74504952684806583081.jpg&lt;/a&gt;\n    &lt;a href=&quot;\thttp://addpix.net/viewer.php?file=18578332641351833636.jpg&quot; rel=&quot;nofollow&quot; target=&quot;_NEW&quot;&gt;\thttp://addpix.net/viewer.php?file=18578332641351833636.jpg&lt;/a&gt;\n    &lt;a href=&quot;\thttp://addpix.net/viewer.php?file=56472566747923364283.jpg&quot; rel=&quot;nofollow&quot; target=&quot;_NEW&quot;&gt;\thttp://addpix.net/viewer.php?file=56472566747923364283.jpg&lt;/a&gt;\n    &lt;a href=&quot;\thttp://addpix.net/viewer.php?file=24915507118524030649.jpg&quot; rel=&quot;nofollow&quot; target=&quot;_NEW&quot;&gt;\thttp://addpix.net/viewer.php?file=24915507118524030649.jpg&lt;/a&gt;\n    &lt;a href=&quot;\thttp://addpix.net/viewer.php?file=93174338778551238624.jpg&quot; rel=&quot;nofollow&quot; target=&quot;_NEW&quot;&gt;\thttp://addpix.net/viewer.php?file=93174338778551238624.jpg&lt;/a&gt;","torrent":{"xt":"urn:btih:cfcb77dcb2d6e087cdcb5bf6343f9c6aa18925cb","amp;dn":"Trance.2013.CAM.XViD-FANTA","amp;tr":["udp%3A%2F%2Ftracker.openbittorrent.com%3A80","udp%3A%2F%2Fopen.demonii.com%3A1337","udp%3A%2F%2Ftracker.coppersurfer.tk%3A6969","udp%3A%2F%2Fexodus.desync.com%3A6969"],"infoHash":"cfcb77dcb2d6e087cdcb5bf6343f9c6aa18925cb","infoHashBuffer":{"type":"Buffer","data":[207,203,119,220,178,214,224,135,205,203,91,246,52,63,156,106,161,137,37,203]},"announce":[],"urlList":[]}}